<svg xmlns="http://www.w3.org/2000/svg" xmlns:xlink="http://www.w3.org/1999/xlink" width="1120" zoomAndPan="magnify" viewBox="0 0 840 839.999992" height="1120" preserveAspectRatio="xMidYMid meet" version="1.0"><defs><filter x="0%" y="0%" width="100%" height="100%" id="1d38826dc9"><feColorMatrix values="0 0 0 0 1 0 0 0 0 1 0 0 0 0 1 0 0 0 1 0" color-interpolation-filters="sRGB"/></filter><g/><clipPath id="65dff70776"><path d="M 245.328125 162.695312 L 593.222656 162.695312 L 593.222656 471.691406 L 245.328125 471.691406 Z M 245.328125 162.695312 " clip-rule="nonzero"/></clipPath><clipPath id="70939a9cd3"><path d="M 296.328125 162.695312 L 542.175781 162.695312 C 570.34375 162.695312 593.175781 185.527344 593.175781 213.691406 L 593.175781 420.46875 C 593.175781 448.632812 570.34375 471.46875 542.175781 471.46875 L 296.328125 471.46875 C 268.160156 471.46875 245.328125 448.632812 245.328125 420.46875 L 245.328125 213.691406 C 245.328125 185.527344 268.160156 162.695312 296.328125 162.695312 Z M 296.328125 162.695312 " clip-rule="nonzero"/></clipPath><clipPath id="7038dad587"><path d="M 438.90625 304.414062 L 578.964844 304.414062 L 578.964844 463.414062 L 438.90625 463.414062 Z M 438.90625 304.414062 " clip-rule="nonzero"/></clipPath><clipPath id="e3201867f5"><path d="M 491.835938 256.835938 L 582.726562 256.835938 L 582.726562 429.179688 L 491.835938 429.179688 Z M 491.835938 256.835938 " clip-rule="nonzero"/></clipPath><clipPath id="5f0c047d2b"><path d="M 259.988281 303.480469 L 399.992188 303.480469 L 399.992188 462.480469 L 259.988281 462.480469 Z M 259.988281 303.480469 " clip-rule="nonzero"/></clipPath><clipPath id="60d8c99ce5"><path d="M 429.257812 251.078125 L 575.285156 251.078125 L 575.285156 383 L 429.257812 383 Z M 429.257812 251.078125 " clip-rule="nonzero"/></clipPath><clipPath id="66c4516086"><path d="M 254.476562 256.835938 L 345.363281 256.835938 L 345.363281 429.179688 L 254.476562 429.179688 Z M 254.476562 256.835938 " clip-rule="nonzero"/></clipPath><mask id="b232420baf"><g filter="url(#1d38826dc9)"><rect x="-84" width="1008" fill="#000000" y="-83.999999" height="1007.999991" fill-opacity="0.66"/></g></mask><clipPath id="885c715938"><path d="M 0.992188 0.554688 L 192.992188 0.554688 L 192.992188 173.761719 L 0.992188 173.761719 Z M 0.992188 0.554688 " clip-rule="nonzero"/></clipPath><clipPath id="315c1d5051"><rect x="0" width="194" y="0" height="174"/></clipPath><clipPath id="ac616c7786"><path d="M 259.988281 262.492188 L 406.238281 262.492188 L 406.238281 394.492188 L 259.988281 394.492188 Z M 259.988281 262.492188 " clip-rule="nonzero"/></clipPath><clipPath id="ccff08f4ad"><path d="M 281 427 L 305 427 L 305 466 L 281 466 Z M 281 427 " clip-rule="nonzero"/></clipPath><clipPath id="ed30fcc26d"><path d="M 304.511719 431.414062 L 292.347656 465.8125 L 281.800781 462.082031 L 293.964844 427.683594 Z M 304.511719 431.414062 " clip-rule="nonzero"/></clipPath><clipPath id="a53730cc5a"><path d="M 281 416 L 297 416 L 297 455 L 281 455 Z M 281 416 " clip-rule="nonzero"/></clipPath><clipPath id="27f9e097ff"><path d="M 296.722656 417.800781 L 292.925781 454.085938 L 281.800781 452.921875 L 285.597656 416.636719 Z M 296.722656 417.800781 " clip-rule="nonzero"/></clipPath><clipPath id="bfbe695ff6"><path d="M 533 429 L 558 429 L 558 468 L 533 468 Z M 533 429 " clip-rule="nonzero"/></clipPath><clipPath id="8794e2ab0b"><path d="M 543.773438 429.925781 L 557.734375 463.632812 L 547.398438 467.914062 L 533.4375 434.207031 Z M 543.773438 429.925781 " clip-rule="nonzero"/></clipPath><clipPath id="251e6b5c35"><path d="M 537 416 L 562 416 L 562 455 L 537 455 Z M 537 416 " clip-rule="nonzero"/></clipPath><clipPath id="e016c3b4ed"><path d="M 547.621094 416.097656 L 561.582031 449.808594 L 551.246094 454.089844 L 537.285156 420.378906 Z M 547.621094 416.097656 " clip-rule="nonzero"/></clipPath></defs><g clip-path="url(#65dff70776)"><g clip-path="url(#70939a9cd3)"><path stroke-linecap="butt" transform="matrix(0.75, 0, 0, 0.75, 245.328126, 162.694113)" fill="none" stroke-linejoin="miter" d="M 68.000007 0.00159889 L 395.796919 0.00159889 C 433.354215 0.00159889 463.796927 30.444311 463.796927 67.996398 L 463.796927 343.699555 C 463.796927 381.251643 433.354215 411.699563 395.796919 411.699563 L 68.000007 411.699563 C 30.442711 411.699563 -0.00000103887 381.251643 -0.00000103887 343.699555 L -0.00000103887 67.996398 C -0.00000103887 30.444311 30.442711 0.00159889 68.000007 0.00159889 Z M 68.000007 0.00159889 " stroke="#000000" stroke-width="6" stroke-opacity="1" stroke-miterlimit="4"/></g></g><g clip-path="url(#7038dad587)"><path fill="#1a1a1a" d="M 553 463.417969 C 552.230469 463.417969 551.53125 462.882812 551.359375 462.101562 C 551.207031 461.402344 547.597656 444.878906 547.472656 436.402344 C 547.457031 435.335938 547.429688 434.371094 547.402344 433.441406 C 547.234375 427.625 547.128906 424.113281 550.859375 417.488281 C 552.253906 415 554.230469 411.980469 556.519531 408.480469 C 562.652344 399.101562 571.046875 386.257812 573.835938 374.6875 C 580.453125 347.226562 567.484375 321.722656 542.296875 312.664062 C 523.984375 306.074219 496.835938 302.792969 471.515625 324.554688 C 456.265625 337.65625 458.773438 351.929688 459.84375 358.023438 C 460.058594 359.25 460.203125 360.058594 460.167969 360.683594 C 460.015625 363.410156 458.324219 365.484375 455.984375 368.355469 C 455.484375 368.964844 454.972656 369.597656 454.421875 370.292969 C 452.648438 372.539062 450.449219 374.847656 448.316406 377.085938 C 446.050781 379.46875 442.671875 383.015625 442.300781 384.3125 C 443.421875 385.824219 446.335938 387.125 448.695312 388.179688 C 451.890625 389.605469 454.410156 390.730469 454.304688 392.953125 C 454.097656 397.3125 451.371094 399.425781 449.5625 400.824219 C 449.136719 401.160156 448.566406 401.601562 448.363281 401.855469 C 448.675781 402.722656 450.910156 404.722656 453.242188 406.191406 C 453.789062 406.539062 454.085938 407.164062 454.011719 407.808594 C 453.933594 408.449219 453.496094 408.988281 452.882812 409.195312 C 452.863281 409.203125 450.261719 410.136719 449.320312 412.210938 C 448.742188 413.484375 449.398438 414.355469 451.027344 416.039062 C 452.109375 417.152344 453.230469 418.304688 453.265625 419.851562 C 453.300781 421.402344 452.875 422.9375 452.460938 424.425781 C 451.664062 427.304688 450.910156 430.019531 452.855469 433.417969 C 453.453125 434.464844 455.984375 435.726562 464.628906 435.796875 C 479.609375 435.914062 483.949219 441.015625 485.375 442.691406 C 485.453125 442.785156 485.519531 442.863281 485.582031 442.929688 C 490.25 448.078125 489.09375 460.515625 488.949219 461.914062 C 488.851562 462.835938 488.027344 463.507812 487.101562 463.410156 C 486.179688 463.3125 485.511719 462.488281 485.605469 461.566406 C 485.960938 458.171875 486.199219 448.609375 483.085938 445.179688 C 483.007812 445.089844 482.917969 444.984375 482.8125 444.859375 C 481.632812 443.472656 478.042969 439.253906 464.601562 439.148438 C 458.167969 439.097656 451.9375 438.570312 449.9375 435.082031 C 447.296875 430.472656 448.363281 426.621094 449.222656 423.53125 C 449.585938 422.222656 449.929688 420.984375 449.90625 419.929688 C 449.847656 419.640625 449.074219 418.84375 448.613281 418.367188 C 447.046875 416.753906 444.675781 414.308594 446.257812 410.828125 C 446.949219 409.304688 448.089844 408.195312 449.160156 407.429688 C 447.339844 406.023438 445.226562 404.019531 444.992188 402.148438 C 444.761719 400.304688 446.21875 399.175781 447.5 398.179688 C 449.070312 396.960938 450.691406 395.707031 450.925781 393.09375 C 450.367188 392.597656 448.554688 391.789062 447.324219 391.238281 C 444.289062 389.882812 440.851562 388.347656 439.308594 385.882812 C 437.726562 383.34375 440.96875 379.9375 445.882812 374.777344 C 447.957031 372.597656 450.105469 370.339844 451.78125 368.21875 C 452.347656 367.5 452.871094 366.859375 453.375 366.238281 C 455.390625 363.769531 456.71875 362.136719 456.8125 360.496094 C 456.824219 360.246094 456.671875 359.371094 456.535156 358.601562 C 455.464844 352.519531 452.625 336.359375 469.320312 322.011719 C 480.058594 312.785156 492.152344 307.121094 505.261719 305.171875 C 517.527344 303.351562 530.371094 304.808594 543.4375 309.507812 C 555.957031 314.011719 566.265625 322.761719 572.457031 334.140625 C 579.078125 346.3125 580.683594 360.605469 577.101562 375.46875 C 574.179688 387.605469 565.597656 400.730469 559.335938 410.3125 C 557.078125 413.761719 555.132812 416.738281 553.789062 419.128906 C 550.515625 424.945312 550.597656 427.75 550.761719 433.34375 C 550.789062 434.285156 550.816406 435.261719 550.832031 436.351562 C 550.953125 444.492188 554.605469 461.214844 554.644531 461.382812 C 554.84375 462.289062 554.269531 463.179688 553.363281 463.378906 C 553.242188 463.40625 553.121094 463.417969 553 463.417969 " fill-opacity="1" fill-rule="nonzero"/></g><g clip-path="url(#e3201867f5)"><path fill="#ffffff" d="M 582.726562 256.835938 L 582.726562 429.027344 L 491.835938 429.027344 L 491.835938 256.835938 Z M 582.726562 256.835938 " fill-opacity="1" fill-rule="nonzero"/></g><g clip-path="url(#5f0c047d2b)"><path fill="#1a1a1a" d="M 285.894531 462.484375 C 286.667969 462.484375 287.363281 461.949219 287.535156 461.167969 C 287.691406 460.46875 291.300781 443.945312 291.421875 435.46875 C 291.441406 434.402344 291.46875 433.4375 291.496094 432.507812 C 291.664062 426.691406 291.765625 423.183594 288.039062 416.554688 C 286.640625 414.070312 284.667969 411.046875 282.378906 407.546875 C 276.246094 398.167969 267.851562 385.324219 265.0625 373.753906 C 258.445312 346.292969 271.414062 320.789062 296.601562 311.730469 C 314.914062 305.140625 342.0625 301.859375 367.382812 323.621094 C 382.632812 336.722656 380.125 350.996094 379.054688 357.089844 C 378.835938 358.316406 378.695312 359.125 378.730469 359.75 C 378.882812 362.476562 380.574219 364.550781 382.914062 367.421875 C 383.410156 368.03125 383.925781 368.664062 384.476562 369.359375 C 386.25 371.605469 388.449219 373.917969 390.578125 376.152344 C 392.847656 378.535156 396.226562 382.082031 396.597656 383.378906 C 395.476562 384.890625 392.5625 386.191406 390.203125 387.246094 C 387.007812 388.671875 384.488281 389.796875 384.59375 392.019531 C 384.800781 396.378906 387.527344 398.492188 389.335938 399.894531 C 389.761719 400.226562 390.332031 400.667969 390.535156 400.921875 C 390.222656 401.789062 387.984375 403.789062 385.65625 405.261719 C 385.109375 405.605469 384.808594 406.234375 384.886719 406.875 C 384.964844 407.515625 385.402344 408.054688 386.015625 408.261719 C 386.03125 408.269531 388.636719 409.203125 389.578125 411.277344 C 390.15625 412.550781 389.5 413.421875 387.867188 415.105469 C 386.789062 416.21875 385.667969 417.371094 385.632812 418.917969 C 385.597656 420.46875 386.023438 422.003906 386.4375 423.492188 C 387.234375 426.371094 387.988281 429.085938 386.042969 432.484375 C 385.441406 433.53125 382.914062 434.792969 374.269531 434.863281 C 359.289062 434.980469 354.949219 440.082031 353.523438 441.757812 C 353.445312 441.851562 353.378906 441.929688 353.316406 441.996094 C 348.648438 447.144531 349.800781 459.582031 349.949219 460.984375 C 350.046875 461.902344 350.871094 462.574219 351.792969 462.476562 C 352.71875 462.378906 353.386719 461.554688 353.292969 460.632812 C 352.9375 457.238281 352.699219 447.675781 355.808594 444.246094 C 355.890625 444.15625 355.980469 444.050781 356.085938 443.925781 C 357.265625 442.539062 360.855469 438.320312 374.296875 438.214844 C 380.730469 438.164062 386.960938 437.636719 388.960938 434.148438 C 391.601562 429.539062 390.53125 425.691406 389.675781 422.597656 C 389.3125 421.289062 388.96875 420.050781 388.992188 418.996094 C 389.050781 418.707031 389.824219 417.910156 390.285156 417.433594 C 391.851562 415.820312 394.21875 413.378906 392.640625 409.894531 C 391.949219 408.371094 390.804688 407.261719 389.738281 406.496094 C 391.554688 405.089844 393.667969 403.085938 393.902344 401.214844 C 394.136719 399.371094 392.679688 398.242188 391.394531 397.246094 C 389.828125 396.027344 388.207031 394.773438 387.96875 392.160156 C 388.53125 391.664062 390.34375 390.855469 391.574219 390.304688 C 394.609375 388.949219 398.046875 387.414062 399.589844 384.949219 C 401.171875 382.414062 397.925781 379.003906 393.015625 373.84375 C 390.9375 371.664062 388.792969 369.40625 387.117188 367.285156 C 386.550781 366.566406 386.027344 365.925781 385.519531 365.304688 C 383.507812 362.835938 382.175781 361.203125 382.085938 359.566406 C 382.074219 359.3125 382.226562 358.4375 382.363281 357.667969 C 383.433594 351.585938 386.269531 335.425781 369.578125 321.078125 C 358.839844 311.851562 346.746094 306.1875 333.632812 304.238281 C 321.371094 302.417969 308.527344 303.875 295.460938 308.574219 C 282.9375 313.078125 272.632812 321.828125 266.441406 333.207031 C 259.820312 345.378906 258.210938 359.671875 261.796875 374.539062 C 264.71875 386.671875 273.300781 399.796875 279.5625 409.378906 C 281.820312 412.828125 283.765625 415.804688 285.109375 418.195312 C 288.382812 424.011719 288.296875 426.820312 288.136719 432.410156 C 288.109375 433.351562 288.082031 434.328125 288.0625 435.417969 C 287.945312 443.558594 284.292969 460.28125 284.253906 460.449219 C 284.054688 461.355469 284.628906 462.246094 285.535156 462.445312 C 285.65625 462.472656 285.777344 462.484375 285.894531 462.484375 " fill-opacity="1" fill-rule="nonzero"/></g><g clip-path="url(#60d8c99ce5)"><path fill="#d64b4b" d="M 575.511719 301.78125 C 575.511719 273.816406 542.722656 251.148438 502.273438 251.148438 C 461.824219 251.148438 429.035156 273.816406 429.035156 301.78125 C 429.035156 328.015625 457.894531 349.589844 494.863281 352.15625 L 513.296875 382.964844 L 513.296875 351.839844 C 548.515625 348.164062 575.511719 327.15625 575.511719 301.78125 " fill-opacity="1" fill-rule="nonzero"/></g><g clip-path="url(#66c4516086)"><path fill="#ffffff" d="M 345.363281 256.835938 L 345.363281 429.027344 L 254.476562 429.027344 L 254.476562 256.835938 Z M 345.363281 256.835938 " fill-opacity="1" fill-rule="nonzero"/></g><g mask="url(#b232420baf)"><g transform="matrix(1, 0, 0, 1, 311, 168)"><g clip-path="url(#315c1d5051)"><g clip-path="url(#885c715938)"><path fill="#0097b2" d="M 0.988281 66.988281 C 0.988281 30.355469 43.949219 0.652344 96.945312 0.652344 C 149.941406 0.652344 192.902344 30.355469 192.902344 66.988281 C 192.902344 101.367188 155.089844 129.628906 106.652344 132.992188 L 82.5 173.355469 L 82.5 132.578125 C 36.359375 127.761719 0.988281 100.234375 0.988281 66.988281 " fill-opacity="1" fill-rule="nonzero"/></g></g></g></g><g clip-path="url(#ac616c7786)"><path fill="#ffbd59" d="M 259.988281 313.191406 C 259.988281 285.230469 292.777344 262.558594 333.226562 262.558594 C 373.675781 262.558594 406.464844 285.230469 406.464844 313.191406 C 406.464844 339.429688 377.605469 361 340.636719 363.566406 L 322.199219 394.375 L 322.199219 363.253906 C 286.984375 359.578125 259.988281 338.566406 259.988281 313.191406 " fill-opacity="1" fill-rule="nonzero"/></g><g clip-path="url(#ccff08f4ad)"><g clip-path="url(#ed30fcc26d)"><path fill="#ffffff" d="M 304.511719 431.414062 L 292.34375 465.820312 L 281.796875 462.089844 L 293.964844 427.683594 Z M 304.511719 431.414062 " fill-opacity="1" fill-rule="nonzero"/></g></g><g clip-path="url(#a53730cc5a)"><g clip-path="url(#27f9e097ff)"><path fill="#ffffff" d="M 296.722656 417.800781 L 292.925781 454.09375 L 281.796875 452.929688 L 285.597656 416.636719 Z M 296.722656 417.800781 " fill-opacity="1" fill-rule="nonzero"/></g></g><g clip-path="url(#bfbe695ff6)"><g clip-path="url(#8794e2ab0b)"><path fill="#ffffff" d="M 543.773438 429.925781 L 557.738281 463.640625 L 547.402344 467.921875 L 533.4375 434.207031 Z M 543.773438 429.925781 " fill-opacity="1" fill-rule="nonzero"/></g></g><g clip-path="url(#251e6b5c35)"><g clip-path="url(#e016c3b4ed)"><path fill="#ffffff" d="M 547.621094 416.097656 L 561.582031 449.816406 L 551.246094 454.097656 L 537.285156 420.378906 Z M 547.621094 416.097656 " fill-opacity="1" fill-rule="nonzero"/></g></g><g fill="#000000" fill-opacity="1"><g transform="translate(175.438878, 636.605267)"><g><path d="M 129.859375 0 L 129.859375 -3.640625 L 118.234375 -3.640625 L 118.234375 -62.765625 C 118.234375 -71.25 116.859375 -79.578125 114.421875 -85.828125 C 107.3125 -103.328125 89.640625 -115.296875 69.875 -115.296875 C 50.109375 -115.296875 32.421875 -103.328125 25.3125 -85.828125 C 22.890625 -79.578125 21.5 -71.25 21.5 -62.765625 L 21.5 -3.640625 L 9.53125 -3.640625 L 9.53125 0 L 53.75 0 L 53.75 -3.640625 L 42.125 -3.640625 L 42.125 -76.28125 C 42.125 -98.484375 53.75 -111.65625 69.875 -111.65625 C 86 -111.65625 97.609375 -98.484375 97.609375 -76.28125 L 97.609375 -3.640625 L 86 -3.640625 L 86 0 Z M 129.859375 0 "/></g></g></g><g fill="#000000" fill-opacity="1"><g transform="translate(314.835873, 636.605267)"><g><path d="M 55.484375 0 L 55.484375 -3.640625 L 43.859375 -3.640625 L 43.859375 -159.5 L 11.265625 -159.5 L 11.265625 -155.859375 L 23.234375 -155.859375 L 23.234375 -3.640625 L 11.265625 -3.640625 L 11.265625 0 Z M 55.484375 0 "/></g></g></g><g fill="#000000" fill-opacity="1"><g transform="translate(371.184156, 636.605267)"><g><path d="M 97.609375 -44.5625 C 97.609375 -31.546875 97.4375 -21.5 90.5 -12.140625 C 86.859375 -7.28125 79.921875 -1.90625 70.046875 -1.90625 C 58.78125 -1.90625 47.328125 -9.359375 42.125 -22.1875 L 42.125 -71.4375 C 42.125 -88.078125 44.90625 -96.5625 50.28125 -102.640625 C 55.3125 -108.359375 61.71875 -111.65625 69.875 -111.65625 C 78.71875 -111.65625 86 -107.671875 90.5 -101.421875 C 95.875 -94.140625 97.609375 -86.34375 97.609375 -70.046875 Z M 21.5 42.296875 L 9.53125 42.296875 L 9.53125 45.9375 L 42.125 45.9375 L 42.125 -14.390625 C 47.5 -5.203125 58.59375 1.734375 70.90625 1.734375 C 84.4375 1.734375 97.4375 -4.6875 105.765625 -14.046875 C 114.078125 -23.40625 118.234375 -35.375 118.234375 -50.453125 L 118.234375 -62.59375 C 118.234375 -79.234375 114.59375 -89.984375 105.0625 -100.390625 C 96.21875 -109.921875 82.703125 -115.296875 69.875 -115.296875 C 48.890625 -115.296875 30 -101.9375 24.09375 -82.53125 C 22.015625 -75.9375 21.5 -70.5625 21.5 -63.109375 Z M 21.5 42.296875 "/></g></g></g><g fill="#000000" fill-opacity="1"><g transform="translate(501.565426, 636.605267)"><g><path d="M 76.984375 -88.59375 L 76.984375 -116.328125 L 73.34375 -116.328125 L 73.34375 -102.984375 C 69.171875 -110.78125 61.03125 -115.296875 50.28125 -115.296875 C 32.25 -115.296875 17.34375 -100.203125 17.34375 -81.484375 C 17.34375 -39.703125 78.015625 -54.953125 78.015625 -25.140625 C 78.015625 -11.96875 66.40625 -1.90625 50.453125 -1.90625 C 32.59375 -1.90625 18.71875 -14.90625 17.34375 -33.109375 L 13.703125 -33.109375 L 13.703125 1.734375 L 17.34375 1.734375 L 17.34375 -17.34375 C 23.921875 -5.203125 36.0625 1.734375 50.28125 1.734375 C 71.609375 1.734375 88.421875 -14.5625 88.421875 -34.84375 C 88.421875 -77.328125 29.125 -61.203125 29.125 -91.015625 C 29.125 -102.46875 38.484375 -111.484375 50.96875 -111.484375 C 63.796875 -111.484375 72.46875 -102.8125 73.515625 -88.59375 Z M 76.984375 -88.59375 "/></g></g></g><g fill="#000000" fill-opacity="1"><g transform="translate(598.657877, 636.605267)"><g><path d="M 43.859375 -142.34375 C 43.859375 -148.40625 38.84375 -153.4375 32.765625 -153.4375 C 26.703125 -153.4375 21.671875 -148.40625 21.671875 -142.34375 C 21.671875 -136.265625 26.703125 -131.25 32.765625 -131.25 C 38.84375 -131.25 43.859375 -136.265625 43.859375 -142.34375 Z M 55.484375 0 L 55.484375 -3.640625 L 43.859375 -3.640625 L 43.859375 -113.734375 L 11.265625 -113.734375 L 11.265625 -110.09375 L 23.234375 -110.09375 L 23.234375 -3.640625 L 11.265625 -3.640625 L 11.265625 0 Z M 55.484375 0 "/></g></g></g></svg>